<svg xmlns="http://www.w3.org/2000/svg" viewBox="0 0 440 480" width="800" height="800" preserveAspectRatio="xMidYMid meet">
  <rect width="440" height="480" fill="#F4EAD0"/>
  <rect x="20" y="20" width="400" height="440" fill="none" stroke="#B89234" stroke-opacity="0.25" stroke-width="2" stroke-dasharray="6 6" rx="14"/>
  <circle cx="218" cy="183" r="11" fill="#B89234" opacity="0.7"/><circle cx="337" cy="196" r="17" fill="#B89234" opacity="0.7"/><circle cx="182" cy="283" r="18" fill="#B89234" opacity="0.7"/><circle cx="359" cy="296" r="12" fill="#B89234" opacity="0.7"/><circle cx="126" cy="312" r="10" fill="#B89234" opacity="0.7"/><circle cx="253" cy="294" r="18" fill="#B89234" opacity="0.7"/><circle cx="328" cy="245" r="10" fill="#B89234" opacity="0.7"/><circle cx="129" cy="281" r="13" fill="#B89234" opacity="0.7"/><circle cx="101" cy="272" r="16" fill="#B89234" opacity="0.7"/><circle cx="194" cy="141" r="16" fill="#B89234" opacity="0.7"/><circle cx="366" cy="290" r="9" fill="#B89234" opacity="0.7"/><circle cx="131" cy="188" r="9" fill="#B89234" opacity="0.7"/><circle cx="298" cy="234" r="15" fill="#B89234" opacity="0.7"/><circle cx="121" cy="200" r="6" fill="#B89234" opacity="0.7"/><circle cx="136" cy="211" r="9" fill="#B89234" opacity="0.7"/><circle cx="84" cy="266" r="8" fill="#B89234" opacity="0.7"/><circle cx="150" cy="226" r="8" fill="#B89234" opacity="0.7"/><circle cx="328" cy="291" r="18" fill="#B89234" opacity="0.7"/>
  <text x="220" y="430" font-family="Georgia, serif" font-size="22" font-weight="700" fill="#2C2C2C" text-anchor="middle">Organic Chia Seeds</text>
</svg>