<svg xmlns="http://www.w3.org/2000/svg" viewBox="0 0 440 480" width="800" height="800" preserveAspectRatio="xMidYMid meet">
  <rect width="440" height="480" fill="#F4E4D2"/>
  <rect x="20" y="20" width="400" height="440" fill="none" stroke="#C97B5C" stroke-opacity="0.25" stroke-width="2" stroke-dasharray="6 6" rx="14"/>
  <circle cx="68" cy="157" r="19" fill="#C97B5C" opacity="0.7"/><circle cx="323" cy="172" r="14" fill="#C97B5C" opacity="0.7"/><circle cx="377" cy="283" r="15" fill="#C97B5C" opacity="0.7"/><circle cx="295" cy="197" r="16" fill="#C97B5C" opacity="0.7"/><circle cx="343" cy="213" r="7" fill="#C97B5C" opacity="0.7"/><circle cx="176" cy="315" r="17" fill="#C97B5C" opacity="0.7"/><circle cx="169" cy="223" r="7" fill="#C97B5C" opacity="0.7"/><circle cx="79" cy="224" r="12" fill="#C97B5C" opacity="0.7"/><circle cx="185" cy="251" r="13" fill="#C97B5C" opacity="0.7"/><circle cx="328" cy="272" r="18" fill="#C97B5C" opacity="0.7"/><circle cx="68" cy="183" r="8" fill="#C97B5C" opacity="0.7"/><circle cx="356" cy="224" r="11" fill="#C97B5C" opacity="0.7"/><circle cx="218" cy="130" r="17" fill="#C97B5C" opacity="0.7"/><circle cx="164" cy="140" r="16" fill="#C97B5C" opacity="0.7"/><circle cx="116" cy="219" r="19" fill="#C97B5C" opacity="0.7"/><circle cx="144" cy="295" r="14" fill="#C97B5C" opacity="0.7"/><circle cx="144" cy="242" r="19" fill="#C97B5C" opacity="0.7"/><circle cx="295" cy="208" r="16" fill="#C97B5C" opacity="0.7"/>
  <text x="220" y="430" font-family="Georgia, serif" font-size="22" font-weight="700" fill="#2C2C2C" text-anchor="middle">Quinoa Puff Mix</text>
</svg>